<svg viewBox="0 0 16 16" fill="none" xmlns="http://www.w3.org/2000/svg">
<g clip-path="url(#clip0_418_837)">
<path d="M14.5 4H0.5V11H10L14.5 4Z" stroke="currentColor" stroke-width="1.5"/>
<path d="M0 1H5" stroke="currentColor" stroke-width="1.5"/>
<path d="M1.5 16C2.32843 16 3 15.3284 3 14.5C3 13.6716 2.32843 13 1.5 13C0.671573 13 0 13.6716 0 14.5C0 15.3284 0.671573 16 1.5 16Z" fill="currentColor"/>
<path d="M7.5 16C8.32843 16 9 15.3284 9 14.5C9 13.6716 8.32843 13 7.5 13C6.67157 13 6 13.6716 6 14.5C6 15.3284 6.67157 16 7.5 16Z" fill="currentColor"/>
</g>
</svg>
