<svg viewBox="0 0 24 24" fill="none" xmlns="http://www.w3.org/2000/svg">
<g clip-path="url(#clip0_412_1723)">
<path d="M4.15725 8.01205C4.08025 8.08766 4.01908 8.17785 3.97732 8.27736C3.93557 8.37687 3.91406 8.4837 3.91406 8.59162C3.91406 8.69953 3.93557 8.80637 3.97732 8.90588C4.01908 9.00539 4.08025 9.09558 4.15725 9.17118C4.31027 9.32173 4.51632 9.4061 4.73098 9.4061C4.94563 9.4061 5.15169 9.32173 5.3047 9.17118L11.1822 3.29373L11.1822 22.6885C11.1817 22.7953 11.2024 22.9011 11.243 22.9998C11.2837 23.0985 11.3435 23.1882 11.419 23.2637C11.4945 23.3391 11.5843 23.3988 11.683 23.4394C11.7818 23.48 11.8876 23.5006 11.9943 23.5C12.4465 23.5 12.8175 23.1406 12.8175 22.6885L12.8175 3.29373L18.684 9.17118C19.0083 9.48452 19.5305 9.48452 19.8431 9.17118C19.9201 9.09558 19.9813 9.00539 20.0231 8.90588C20.0648 8.80637 20.0863 8.69953 20.0863 8.59162C20.0863 8.4837 20.0648 8.37687 20.0231 8.27736C19.9813 8.17785 19.9201 8.08766 19.8431 8.01205L12.5743 0.743208C12.4998 0.666273 12.4107 0.605096 12.3121 0.563316C12.2136 0.521536 12.1076 0.500005 12.0006 0.500005C11.8935 0.500005 11.7875 0.521536 11.689 0.563316C11.5904 0.605096 11.5013 0.666273 11.4268 0.743208L4.15725 8.01205Z" fill="#1E201D"/>
</g>
<defs>
<clipPath id="clip0_412_1723">
<rect width="23" height="23" fill="white" transform="translate(0.5 23.5) rotate(-90)"/>
</clipPath>
</defs>
</svg>
